<svg xmlns="http://www.w3.org/2000/svg"  viewBox="0 0 40 40" width="80px" height="80px"><path fill="#98ccfd" d="M20,38.5C9.799,38.5,1.5,30.201,1.5,20S9.799,1.5,20,1.5S38.5,9.799,38.5,20S30.201,38.5,20,38.5z"/><path fill="#4788c7" d="M20,2c9.925,0,18,8.075,18,18s-8.075,18-18,18S2,29.925,2,20S10.075,2,20,2 M20,1 C9.507,1,1,9.507,1,20s8.507,19,19,19s19-8.507,19-19S30.493,1,20,1L20,1z"/><path fill="#fff" d="M20,31c-6.065,0-11-4.935-11-11S13.935,9,20,9s11,4.935,11,11S26.065,31,20,31z M20,11 c-4.963,0-9,4.037-9,9s4.037,9,9,9s9-4.037,9-9S24.963,11,20,11z"/><polygon fill="#fff" points="16,15 16,20 16,25 25,20"/></svg>